<?xml version="1.0" encoding="UTF-8" standalone="no"?>
<!-- Created with Inkscape (http://www.inkscape.org/) -->

<svg
   width="108"
   height="108"
   viewBox="0 0 108 108"
   version="1.1"
   id="svg1"
   xml:space="preserve"
   inkscape:version="1.3 (0e150ed6c4, 2023-07-21)"
   sodipodi:docname="Icon.svg"
   xmlns:inkscape="http://www.inkscape.org/namespaces/inkscape"
   xmlns:sodipodi="http://sodipodi.sourceforge.net/DTD/sodipodi-0.dtd"
   xmlns="http://www.w3.org/2000/svg"
   xmlns:svg="http://www.w3.org/2000/svg"><sodipodi:namedview
     id="namedview1"
     pagecolor="#ffffff"
     bordercolor="#000000"
     borderopacity="0.25"
     inkscape:showpageshadow="2"
     inkscape:pageopacity="0.0"
     inkscape:pagecheckerboard="0"
     inkscape:deskcolor="#d1d1d1"
     inkscape:document-units="px"
     inkscape:zoom="4.2929687"
     inkscape:cx="82.693358"
     inkscape:cy="119.38126"
     inkscape:window-width="2560"
     inkscape:window-height="1334"
     inkscape:window-x="-11"
     inkscape:window-y="-11"
     inkscape:window-maximized="1"
     inkscape:current-layer="layer2" /><defs
     id="defs1" /><g
     inkscape:label="Layer 1"
     inkscape:groupmode="layer"
     id="layer1" /><g
     inkscape:groupmode="layer"
     id="layer2"
     inkscape:label="Layer 2"
     transform="translate(-2)"><g
       class="layer"
       id="g1"
       transform="matrix(1.2824232,0,0,1.3006162,-490.86073,-446.28343)"><title
         id="title1">Layer 1</title><g
         id="logo-group"><g
           id="logo-center"
           transform="translate(259.56338)"><g
             font-family="'Brandmark Sans 26'"
             font-size="72px"
             font-style="normal"
             font-weight="normal"
             id="title"
             text-anchor="middle"><path
               d="m 152.91241,411.216 12.1284,-54.432 h -10.5732 l -6.7608,33.2856 -6.7716,-33.2856 h -10.5732 l 12.2148,54.432 z"
               fill="#00ef60"
               id="path38958"
               stroke="#00ef60"
               stroke-miterlimit="2"
               stroke-width="0" /><path
               d="M 442.86,-50.4 H 431.77 V 0 h 11.09 c -4.68,-1.94 -9.29,-6.26 -9.29,-14.76 v -20.88 c 0,-8.5 4.61,-12.82 9.29,-14.76 z m 0.51,35.64 c 0,4.54 2.73,6.34 5.54,6.34 2.81,0 5.54,-1.8 5.54,-6.34 v -20.88 c 0,-4.54 -2.73,-6.34 -5.54,-6.34 -2.81,0 -5.54,1.8 -5.54,6.34 z M 454.96,0 h 11.16 v -50.4 h -11.16 c 4.68,1.94 9.29,6.26 9.29,14.76 v 20.88 c 0,8.5 -4.61,12.82 -9.29,14.76 z"
               fill="#00bd4f"
               id="path38966"
               stroke="#00bd4f"
               stroke-miterlimit="2"
               stroke-width="0"
               transform="matrix(1.08,0,0,1.08,-300.50515,411.216)" /></g></g></g></g></g></svg>
