<?xml version="1.0" encoding="UTF-8" standalone="no"?>
<!-- Created with Inkscape (http://www.inkscape.org/) -->

<svg
   width="512"
   height="512"
   viewBox="0 0 512 512"
   version="1.1"
   id="svg1"
   xml:space="preserve"
   xmlns="http://www.w3.org/2000/svg"
   xmlns:svg="http://www.w3.org/2000/svg"><defs
     id="defs1" /><g
     id="layer1" /><g
     id="layer2"
     transform="translate(-2)"><g
       class="layer"
       id="g1"
       transform="matrix(5.2899928,0,0,5.3650392,-1995.6053,-1810.095)"><title
         id="title1">Layer 1</title><g
         id="logo-group"><g
           id="logo-center"
           transform="translate(259.56338)"><g
             font-family="'Brandmark Sans 26'"
             font-size="72px"
             font-style="normal"
             font-weight="normal"
             id="title"
             text-anchor="middle"><path
               d="m 152.91241,411.216 12.1284,-54.432 h -10.5732 l -6.7608,33.2856 -6.7716,-33.2856 h -10.5732 l 12.2148,54.432 z"
               fill="#00ef60"
               id="path38958"
               stroke="#00ef60"
               stroke-miterlimit="2"
               stroke-width="0" /><path
               d="M 442.86,-50.4 H 431.77 V 0 h 11.09 c -4.68,-1.94 -9.29,-6.26 -9.29,-14.76 v -20.88 c 0,-8.5 4.61,-12.82 9.29,-14.76 z m 0.51,35.64 c 0,4.54 2.73,6.34 5.54,6.34 2.81,0 5.54,-1.8 5.54,-6.34 v -20.88 c 0,-4.54 -2.73,-6.34 -5.54,-6.34 -2.81,0 -5.54,1.8 -5.54,6.34 z M 454.96,0 h 11.16 v -50.4 h -11.16 c 4.68,1.94 9.29,6.26 9.29,14.76 v 20.88 c 0,8.5 -4.61,12.82 -9.29,14.76 z"
               fill="#00bd4f"
               id="path38966"
               stroke="#00bd4f"
               stroke-miterlimit="2"
               stroke-width="0"
               transform="matrix(1.08,0,0,1.08,-300.50515,411.216)" /></g></g></g></g></g></svg>
